<svg width="64" height="64" viewBox="0 0 64 64" fill="none" xmlns="http://www.w3.org/2000/svg">
<g clip-path="url(#clip0_13_3668)">
<path d="M39.4458 29.5856L40.2278 27.4776C40.3978 27.0356 40.0578 26.5596 39.5818 26.5596H24.7578C22.3778 26.5596 20.4058 28.3276 20.1678 30.7076L19.5558 36.3516C19.4878 36.8956 19.8618 37.4056 20.4058 37.5416C21.0178 37.6776 21.8338 37.7796 22.6498 37.8816L23.1598 46.8576C23.1938 47.6056 23.8398 48.1836 24.5878 48.1836H28.9398C29.6878 48.1836 30.3338 47.6056 30.3678 46.8576L31.1158 31.4556C31.1158 30.6736 31.7618 30.0616 32.5098 30.0616H38.7998C39.1058 30.0276 39.3438 29.8576 39.4458 29.5856Z" fill="#7842E8"/>
<path d="M26.7983 25.3016C29.4084 25.3016 31.5243 23.1857 31.5243 20.5756C31.5243 17.9655 29.4084 15.8496 26.7983 15.8496C24.1882 15.8496 22.0723 17.9655 22.0723 20.5756C22.0723 23.1857 24.1882 25.3016 26.7983 25.3016Z" fill="#7842E8"/>
<path d="M43.39 39.9212C43.288 39.3432 42.812 38.9352 42.234 38.9352H41.35V38.2892C41.35 37.4052 40.636 36.6572 39.718 36.6572H38.018C37.134 36.6572 36.386 37.3712 36.386 38.2892V38.9352H35.502C34.924 38.9352 34.448 39.3432 34.38 39.9212L33.36 46.8232C33.258 47.5032 33.802 48.1492 34.482 48.1492H43.22C43.934 48.1492 44.478 47.5372 44.342 46.8232L43.39 39.9212ZM40.194 38.9692H37.644V38.3232C37.644 38.0852 37.848 37.8812 38.086 37.8812H39.786C40.024 37.8812 40.228 38.0852 40.228 38.3232V38.9692H40.194Z" fill="#7842E8"/>
<path d="M38.1201 32.8494V34.6174C38.1201 35.0594 38.4601 35.3994 38.9021 35.3994C39.3441 35.3994 39.6841 35.0594 39.6841 34.6174V32.8494C39.6841 32.4074 39.3441 32.0674 38.9021 32.0674C38.4601 32.0674 38.1201 32.4074 38.1201 32.8494Z" fill="#7842E8"/>
<path d="M34.5844 33.2236C34.2104 33.4276 34.0744 33.9376 34.2784 34.3116L35.1624 35.8416C35.2984 36.0796 35.5704 36.2496 35.8424 36.2496C35.9784 36.2496 36.1144 36.2156 36.2504 36.1476C36.6244 35.9436 36.7604 35.4336 36.5564 35.0596L35.6724 33.5296C35.4344 33.1216 34.9584 32.9856 34.5844 33.2236Z" fill="#7842E8"/>
<path d="M41.6219 36.1139C41.7579 36.1819 41.8939 36.2159 42.0299 36.2159C42.3019 36.2159 42.5739 36.0799 42.7099 35.8079L43.5939 34.2779C43.7979 33.9039 43.6959 33.4279 43.2879 33.1899C42.9139 32.9859 42.4379 33.0879 42.1999 33.4959L41.3159 35.0259C41.1119 35.3999 41.2139 35.8759 41.6219 36.1139Z" fill="#7842E8"/>
</g>
<circle cx="32" cy="32" r="31.5" stroke="#F1EAFF"/>
<defs>
<clipPath id="clip0_13_3668">
<rect width="34" height="34" fill="white" transform="translate(15 15)"/>
</clipPath>
</defs>
</svg>
