<svg width="64" height="64" viewBox="0 0 64 64" fill="none" xmlns="http://www.w3.org/2000/svg">
<circle cx="32" cy="32" r="31.5" stroke="#F1EAFF"/>
<g clip-path="url(#clip0_13_3730)">
<path d="M23.5751 22.0469C22.3817 22.0469 21.4121 23.0165 21.4121 24.1726V46.7352C21.4121 47.9286 22.3817 48.8982 23.5751 48.8982H40.5437C41.7371 48.8982 42.7067 47.9286 42.7067 46.7352V24.1726C42.7067 22.9792 41.7371 22.0469 40.5437 22.0469H37.4483V23.2403C37.4483 24.4337 36.4787 25.4033 35.2853 25.4033H28.7962C27.6028 25.4033 26.6332 24.4337 26.6332 23.2403V22.0469H23.5751Z" fill="#7842E8"/>
<path d="M27.3789 20.2568V23.2402C27.3789 24.0234 28.0129 24.6574 28.7961 24.6574H35.3224C36.1056 24.6574 36.7396 24.0234 36.7396 23.2402V20.2568C36.7396 19.4736 36.1056 18.8396 35.3224 18.8396H34.6511C34.6511 18.8023 34.6511 18.765 34.6511 18.7277C34.6511 17.2733 33.495 16.1172 32.0406 16.1172C30.5861 16.1172 29.43 17.2733 29.43 18.7277C29.43 18.765 29.43 18.8023 29.43 18.8396H28.7588C28.0129 18.8769 27.3789 19.5109 27.3789 20.2568ZM32.0406 17.6462C32.6746 17.6462 33.1594 18.131 33.1594 18.8023C33.1594 18.8396 33.1594 18.8396 33.1594 18.8769H30.9218C30.9218 18.8396 30.9218 18.8023 30.9218 18.765C30.9218 18.1683 31.4066 17.6462 32.0406 17.6462Z" fill="#7842E8"/>
</g>
<defs>
<clipPath id="clip0_13_3730">
<rect width="36" height="36" fill="white" transform="translate(14 14)"/>
</clipPath>
</defs>
</svg>
