<svg width="59" height="58" viewBox="0 0 59 58" fill="none" xmlns="http://www.w3.org/2000/svg">
<rect x="0.333008" width="58" height="58" rx="8.22422" fill="#4DBFFF"/>
<g clip-path="url(#clip0_13_4418)">
<path fill-rule="evenodd" clip-rule="evenodd" d="M34.9516 21.5166C34.8844 21.5191 34.8207 21.5486 34.7535 21.5884L30.3059 24.2594H32.0409L29.6318 32.0321C28.7408 30.7567 27.4718 29.6845 25.884 28.7269C25.8301 30.5972 25.5702 32.3856 25.1605 33.8734C25.0577 34.2585 24.8753 34.5926 24.651 34.8844C26.1538 37.8504 24.8669 40.8158 24.1514 45.6974H32.8252C34.1199 38.1102 39.5045 32.9978 45.2053 30.6049L46.1937 31.8701L48.3147 27.5569C48.3795 27.424 48.2658 27.3364 48.1012 27.318L42.0579 26.5831L42.8941 27.6547C39.8653 28.6312 37.1651 30.1933 34.8978 32.0316L36.491 24.2589H38.2261L35.1503 21.5879C35.0826 21.5303 35.0154 21.5109 34.9516 21.5166Z" fill="white"/>
<path fill-rule="evenodd" clip-rule="evenodd" d="M14.9748 20.3633C12.5772 20.3633 11.4061 21.5817 10.9784 23.009C10.0152 26.2142 10.2271 30.6 10.9784 33.3038C11.4397 34.9696 13.5348 34.482 13.1256 32.9356C12.3267 29.9085 12.3007 27.0349 13.1902 24.2437C13.3806 23.6477 13.9676 23.6157 13.9676 24.2437V44.1574C13.9676 44.7081 14.1479 45.0706 14.4139 45.3203C14.6778 45.5664 15.043 45.6961 15.4111 45.6961C15.7782 45.6961 16.1409 45.5664 16.4073 45.3203C16.6703 45.0706 16.8536 44.7081 16.8536 44.1574V31.7284H17.631V44.1579C17.631 44.7086 17.8133 45.0712 18.0773 45.3208C18.3432 45.5669 18.7058 45.6966 19.0735 45.6966C19.4416 45.6966 19.8068 45.5669 20.0697 45.3208C20.3362 45.0712 20.516 44.7086 20.516 44.1579V24.2437C20.516 23.6157 21.103 23.6477 21.2934 24.2437C22.1829 27.0349 22.1569 29.9085 21.359 32.9356C20.9498 34.482 23.0439 34.9696 23.5062 33.3038C24.2575 30.6 24.4684 26.2137 23.5062 23.009C23.078 21.5817 21.9069 20.3633 19.5093 20.3633H14.9748Z" fill="white"/>
<path fill-rule="evenodd" clip-rule="evenodd" d="M20.6176 15.6652C20.9867 17.2117 20.0347 18.7635 18.4889 19.1323C16.9411 19.502 15.388 18.5446 15.0189 17.001C14.6498 15.4545 15.6017 13.9027 17.1495 13.5335C18.6954 13.1642 20.2485 14.1187 20.6176 15.6652Z" fill="white"/>
</g>
<defs>
<clipPath id="clip0_13_4418">
<rect width="38" height="38" fill="white" transform="translate(10.333 10)"/>
</clipPath>
</defs>
</svg>
