<svg width="64" height="64" viewBox="0 0 64 64" fill="none" xmlns="http://www.w3.org/2000/svg">
<circle cx="32" cy="32" r="31.5" stroke="#F1EAFF"/>
<g clip-path="url(#clip0_13_3748)">
<path d="M36.7398 28.8802C39.4998 28.8802 41.7198 25.4602 41.7198 22.6402C41.7198 19.8802 39.4998 17.6602 36.7398 17.6602C33.9798 17.6602 31.7598 19.8802 31.7598 22.6402C31.7598 25.4602 33.9798 28.8802 36.7398 28.8802Z" fill="#7842E8"/>
<path d="M32.0002 34.8806H34.2802C36.0202 34.8806 37.5802 35.9606 38.1802 37.5806C38.2402 37.7006 38.2402 37.7606 38.2402 37.8806H38.4802C39.0202 37.7006 39.9202 37.3406 40.8802 36.9806L42.8002 36.2606C43.2802 36.0206 43.8202 35.9006 44.3602 35.9006C44.5402 35.9006 44.7202 35.9006 44.9002 35.9606C44.5402 32.4206 41.5402 29.6006 37.9402 29.6006H35.3602C33.5002 29.6006 31.7002 30.3206 30.3802 31.7006C29.6002 32.4806 29.0602 33.3806 28.7002 34.4006C29.1802 34.7006 29.7802 34.8206 30.8602 34.8206L32.0002 34.8806Z" fill="#7842E8"/>
<path d="M22.8198 32H18.4998C17.8398 32 17.2998 32.54 17.2998 33.2V45.2C17.2998 45.86 17.8398 46.4 18.4998 46.4H22.8198C23.4798 46.4 24.0198 45.86 24.0198 45.2V33.2C24.0198 32.54 23.4798 32 22.8198 32Z" fill="#7842E8"/>
<path d="M43.2196 37.4598C41.7196 37.9998 39.6796 38.7798 38.7796 39.0798C38.5396 39.1398 38.2996 39.3198 38.1196 39.4998C36.7996 40.6398 34.9996 40.9398 33.2596 40.7598C32.8996 40.6998 32.6596 40.3998 32.7196 40.0998C32.8396 38.9598 34.4596 40.1598 36.5596 39.0798C36.9196 38.8998 37.0996 38.4798 36.9196 38.0598C36.4996 36.9198 35.4196 36.1398 34.1596 36.1398C29.4796 36.1398 31.0996 36.1398 30.7396 36.1398C29.5996 36.1398 28.6996 36.0198 27.8596 35.5398C27.8596 35.5398 27.7996 35.4798 27.7396 35.4798C27.3796 35.2398 26.4796 34.6398 25.0996 34.3398V45.0798C25.6396 45.1998 26.1796 45.3198 26.7196 45.3198H35.9596C37.2796 45.3198 38.6596 45.0198 39.7996 44.3598L45.2596 41.5398C46.3996 40.9398 46.8796 39.5598 46.2196 38.4198C45.7996 37.2798 44.3596 36.9198 43.2196 37.4598Z" fill="#7842E8"/>
</g>
<defs>
<clipPath id="clip0_13_3748">
<rect width="30" height="30" fill="white" transform="translate(17 17)"/>
</clipPath>
</defs>
</svg>
