<svg width="64" height="64" viewBox="0 0 64 64" fill="none" xmlns="http://www.w3.org/2000/svg">
<circle cx="32" cy="32" r="31.5" stroke="#F1EAFF"/>
<g clip-path="url(#clip0_13_3617)">
<path d="M31.7526 20.8115C28.1672 20.8115 25.2617 23.717 25.2617 27.3024C25.2617 30.5788 27.9199 36.5752 31.7526 36.5752C35.5235 36.5752 38.2435 30.517 38.2435 27.3024C38.2435 23.717 35.3381 20.8115 31.7526 20.8115Z" fill="#7842E8"/>
<path d="M36.0182 37.8115H27.5491C24.5818 37.8115 22.1709 40.2224 22.1709 43.1897V46.2806C22.1709 46.5897 22.48 46.8988 22.7891 46.8988H40.7782C41.0873 46.8988 41.3964 46.5897 41.3964 46.2806V43.1897C41.3964 40.2224 38.9854 37.8115 36.0182 37.8115Z" fill="#7842E8"/>
<path d="M31.7526 18.4004C35.5235 18.4004 38.6762 20.8732 39.6035 24.335H40.9017C39.9126 20.1932 36.2035 17.1641 31.7526 17.1641C27.3017 17.1641 23.5926 20.1932 22.6035 24.335H23.9017C24.8908 20.8732 28.0435 18.4004 31.7526 18.4004Z" fill="#7842E8"/>
<path d="M41.149 25.6328H41.0872H39.6035C39.2944 25.6328 38.9854 25.9419 38.9854 26.251V31.0728C38.9854 31.3819 39.2944 31.691 39.6035 31.691H41.0872C42.2617 31.691 43.2508 30.7019 43.2508 29.5274V27.7964C43.2508 26.6219 42.3235 25.6328 41.149 25.6328Z" fill="#7842E8"/>
<path d="M23.9636 31.691C24.3345 31.691 24.5818 31.3819 24.5818 31.0728V26.251C24.5818 25.8801 24.3345 25.6328 23.9636 25.6328H22.4799C21.8618 25.6328 20.749 25.9419 20.749 27.7964V29.5274C20.749 31.4437 21.7999 31.691 22.4799 31.691H23.9636Z" fill="#7842E8"/>
</g>
<defs>
<clipPath id="clip0_13_3617">
<rect width="34" height="34" fill="white" transform="translate(15 15)"/>
</clipPath>
</defs>
</svg>
