<svg width="58" height="58" viewBox="0 0 58 58" fill="none" xmlns="http://www.w3.org/2000/svg">
<rect width="58" height="58" rx="8.22422" fill="#994CFD"/>
<g clip-path="url(#clip0_13_4401)">
<path d="M15.5413 30.0622H19.4372V41.3955C19.4401 41.8249 19.5538 42.2462 19.7674 42.6187C19.981 42.9912 20.2871 43.3022 20.6562 43.5217C21.0252 43.7411 21.4447 43.8615 21.874 43.8712C22.3032 43.881 22.7277 43.7797 23.1063 43.5772L23.5172 43.3363C24.0801 42.928 24.7629 42.7186 25.458 42.7413C26.1534 42.7164 26.8369 42.926 27.3988 43.3363C28.2989 43.9254 29.3549 44.2314 30.4305 44.2147C31.504 44.2332 32.5573 43.9217 33.448 43.3222C34.0199 42.9385 34.6931 42.7336 35.3818 42.7336C36.0705 42.7336 36.7436 42.9385 37.3155 43.3222L37.7263 43.563C38.0998 43.7754 38.5221 43.887 38.9518 43.887C39.3814 43.887 39.8037 43.7754 40.1772 43.563C40.5488 43.3468 40.857 43.0366 41.0709 42.6636C41.2847 42.2906 41.3967 41.868 41.3955 41.438V21.9163C41.3918 19.7571 40.5323 17.6873 39.0055 16.1605C37.4787 14.6337 35.4089 13.7743 33.2497 13.7705H17.6663C16.6331 13.7705 15.6422 14.181 14.9116 14.9116C14.181 15.6422 13.7705 16.6331 13.7705 17.6663V28.2913C13.7705 28.761 13.9571 29.2114 14.2892 29.5435C14.6213 29.8756 15.0717 30.0622 15.5413 30.0622ZM25.458 21.5622H35.3747C35.6565 21.5622 35.9267 21.6741 36.126 21.8734C36.3252 22.0726 36.4372 22.3429 36.4372 22.6247C36.4372 22.9065 36.3252 23.1767 36.126 23.376C35.9267 23.5752 35.6565 23.6872 35.3747 23.6872H25.458C25.1762 23.6872 24.906 23.5752 24.7067 23.376C24.5075 23.1767 24.3955 22.9065 24.3955 22.6247C24.3955 22.3429 24.5075 22.0726 24.7067 21.8734C24.906 21.6741 25.1762 21.5622 25.458 21.5622ZM25.458 26.5205H35.3747C35.6565 26.5205 35.9267 26.6325 36.126 26.8317C36.3252 27.031 36.4372 27.3012 36.4372 27.583C36.4372 27.8648 36.3252 28.1351 36.126 28.3343C35.9267 28.5336 35.6565 28.6455 35.3747 28.6455H25.458C25.1762 28.6455 24.906 28.5336 24.7067 28.3343C24.5075 28.1351 24.3955 27.8648 24.3955 27.583C24.3955 27.3012 24.5075 27.031 24.7067 26.8317C24.906 26.6325 25.1762 26.5205 25.458 26.5205ZM25.458 31.4788H31.1247C31.4065 31.4788 31.6767 31.5908 31.876 31.79C32.0752 31.9893 32.1872 32.2595 32.1872 32.5413C32.1872 32.8231 32.0752 33.0934 31.876 33.2926C31.6767 33.4919 31.4065 33.6038 31.1247 33.6038H25.458C25.1762 33.6038 24.906 33.4919 24.7067 33.2926C24.5075 33.0934 24.3955 32.8231 24.3955 32.5413C24.3955 32.2595 24.5075 31.9893 24.7067 31.79C24.906 31.5908 25.1762 31.4788 25.458 31.4788ZM15.8955 17.6663C15.8956 17.2946 16.0136 16.9326 16.2325 16.6322C16.4515 16.3318 16.76 16.1086 17.1138 15.9947C17.2895 15.9251 17.4774 15.8914 17.6663 15.8955C18.136 15.8955 18.5864 16.0821 18.9185 16.4142C19.2506 16.7463 19.4372 17.1967 19.4372 17.6663V27.9372H15.8955V17.6663Z" fill="white"/>
</g>
<defs>
<clipPath id="clip0_13_4401">
<rect width="34" height="34" fill="white" transform="translate(12 12)"/>
</clipPath>
</defs>
</svg>
