<svg width="56" height="57" viewBox="0 0 56 57" fill="none" xmlns="http://www.w3.org/2000/svg">
<rect x="0.5" y="1.2793" width="55" height="55" rx="7.5" stroke="#9999BD" stroke-opacity="0.25"/>
<path d="M28.0016 25.2799C27.0734 25.2799 26.1831 25.6487 25.5268 26.3051C24.8704 26.9615 24.5016 27.8517 24.5016 28.7799C24.5016 29.7082 24.8704 30.5984 25.5268 31.2548C26.1831 31.9112 27.0734 32.2799 28.0016 32.2799C28.9299 32.2799 29.8201 31.9112 30.4765 31.2548C31.1329 30.5984 31.5016 29.7082 31.5016 28.7799C31.5016 27.8517 31.1329 26.9615 30.4765 26.3051C29.8201 25.6487 28.9299 25.2799 28.0016 25.2799ZM28.0016 22.9466C29.5487 22.9466 31.0325 23.5612 32.1264 24.6552C33.2204 25.7491 33.835 27.2329 33.835 28.7799C33.835 30.327 33.2204 31.8108 32.1264 32.9047C31.0325 33.9987 29.5487 34.6133 28.0016 34.6133C26.4545 34.6133 24.9708 33.9987 23.8768 32.9047C22.7829 31.8108 22.1683 30.327 22.1683 28.7799C22.1683 27.2329 22.7829 25.7491 23.8768 24.6552C24.9708 23.5612 26.4545 22.9466 28.0016 22.9466ZM35.585 22.6549C35.585 23.0417 35.4313 23.4127 35.1578 23.6861C34.8843 23.9596 34.5134 24.1133 34.1266 24.1133C33.7399 24.1133 33.3689 23.9596 33.0954 23.6861C32.8219 23.4127 32.6683 23.0417 32.6683 22.6549C32.6683 22.2682 32.8219 21.8972 33.0954 21.6238C33.3689 21.3503 33.7399 21.1966 34.1266 21.1966C34.5134 21.1966 34.8843 21.3503 35.1578 21.6238C35.4313 21.8972 35.585 22.2682 35.585 22.6549ZM28.0016 19.4466C25.1153 19.4466 24.644 19.4548 23.3011 19.5143C22.3865 19.5574 21.7728 19.6799 21.2035 19.9016C20.727 20.0765 20.2963 20.3569 19.9435 20.7218C19.5783 21.0746 19.2975 21.5053 19.1221 21.9818C18.9005 22.5534 18.778 23.1659 18.736 24.0794C18.6753 25.3674 18.6671 25.8178 18.6671 28.7799C18.6671 31.6674 18.6753 32.1376 18.7348 33.4804C18.778 34.3939 18.9005 35.0088 19.121 35.577C19.3193 36.0844 19.5526 36.4496 19.94 36.837C20.3331 37.2289 20.6983 37.4634 21.2 37.6571C21.7763 37.8799 22.39 38.0036 23.3 38.0456C24.588 38.1063 25.0383 38.1133 28.0005 38.1133C30.888 38.1133 31.3581 38.1051 32.701 38.0456C33.6133 38.0024 34.227 37.8799 34.7975 37.6594C35.2735 37.4837 35.704 37.2034 36.0575 36.8393C36.4506 36.4473 36.6851 36.0821 36.8788 35.5793C37.1005 35.0053 37.2241 34.3916 37.2661 33.4793C37.3268 32.1924 37.3338 31.7409 37.3338 28.7799C37.3338 25.8936 37.3256 25.4223 37.2661 24.0794C37.223 23.1671 37.0993 22.5511 36.8788 21.9818C36.7029 21.5058 36.4227 21.0753 36.0586 20.7218C35.706 20.3564 35.2752 20.0756 34.7986 19.9004C34.227 19.6788 33.6133 19.5563 32.701 19.5143C31.4141 19.4536 30.965 19.4466 28.0016 19.4466ZM28.0016 17.1133C31.1715 17.1133 31.567 17.1249 32.8118 17.1833C34.0531 17.2416 34.9001 17.4364 35.6433 17.7258C36.4133 18.0221 37.062 18.4234 37.7106 19.0709C38.3039 19.6542 38.7629 20.3596 39.0558 21.1383C39.344 21.8814 39.54 22.7284 39.5983 23.9709C39.6531 25.2146 39.6683 25.6101 39.6683 28.7799C39.6683 31.9498 39.6566 32.3453 39.5983 33.5889C39.54 34.8314 39.344 35.6773 39.0558 36.4216C38.7637 37.2007 38.3046 37.9063 37.7106 38.489C37.1273 39.082 36.4218 39.541 35.6433 39.8341C34.9001 40.1223 34.0531 40.3183 32.8118 40.3766C31.567 40.4314 31.1715 40.4466 28.0016 40.4466C24.8318 40.4466 24.4363 40.4349 23.1915 40.3766C21.9501 40.3183 21.1043 40.1223 20.36 39.8341C19.581 39.5418 18.8754 39.0827 18.2926 38.489C17.6993 37.9058 17.2402 37.2003 16.9475 36.4216C16.6581 35.6784 16.4633 34.8314 16.405 33.5889C16.349 32.3453 16.335 31.9498 16.335 28.7799C16.335 25.6101 16.3466 25.2146 16.405 23.9709C16.4633 22.7273 16.6581 21.8826 16.9475 21.1383C17.2394 20.3592 17.6986 19.6535 18.2926 19.0709C18.8756 18.4774 19.5811 18.0183 20.36 17.7258C21.1031 17.4364 21.949 17.2416 23.1915 17.1833C24.4363 17.1284 24.8318 17.1133 28.0016 17.1133Z" fill="white"/>
</svg>
