<svg width="64" height="64" viewBox="0 0 64 64" fill="none" xmlns="http://www.w3.org/2000/svg">
<circle cx="32" cy="32" r="31.5" stroke="#F1EAFF"/>
<g clip-path="url(#clip0_13_3653)">
<path fill-rule="evenodd" clip-rule="evenodd" d="M21.0205 23.4997C21.0205 19.7833 24.0333 16.7705 27.7497 16.7705H36.2497C39.9662 16.7705 42.9788 19.7833 42.9788 23.4997V46.1663C42.9788 46.6202 42.6906 47.024 42.2612 47.1713C41.8318 47.3187 41.3563 47.177 41.0777 46.8187L40.0087 45.4441C39.2996 44.5326 37.9219 44.5326 37.213 45.4441L36.1438 46.8187C35.9427 47.0774 35.6331 47.2288 35.3052 47.2288C34.9774 47.2288 34.6678 47.0774 34.4665 46.8187L33.3975 45.4441C32.6885 44.5326 31.3109 44.5326 30.6018 45.4441L29.5328 46.8187C29.3315 47.0774 29.022 47.2288 28.6941 47.2288C28.3662 47.2288 28.0567 47.0774 27.8554 46.8187L26.7864 45.4441C26.0774 44.5326 24.6997 44.5326 23.9907 45.4441L22.9217 46.8187C22.643 47.177 22.1675 47.3187 21.7382 47.1713C21.3089 47.024 21.0205 46.6202 21.0205 46.1663V23.4997ZM26.6872 24.9163C26.6872 24.3295 27.1629 23.8538 27.7497 23.8538H36.2497C36.8365 23.8538 37.3122 24.3295 37.3122 24.9163C37.3122 25.5031 36.8365 25.9788 36.2497 25.9788H27.7497C27.1629 25.9788 26.6872 25.5031 26.6872 24.9163ZM26.6872 30.583C26.6872 29.9962 27.1629 29.5205 27.7497 29.5205H36.2497C36.8365 29.5205 37.3122 29.9962 37.3122 30.583C37.3122 31.1698 36.8365 31.6455 36.2497 31.6455H27.7497C27.1629 31.6455 26.6872 31.1698 26.6872 30.583Z" fill="#7842E8"/>
</g>
<defs>
<clipPath id="clip0_13_3653">
<rect width="34" height="34" fill="white" transform="translate(15 15)"/>
</clipPath>
</defs>
</svg>
