<svg width="56" height="57" viewBox="0 0 56 57" fill="none" xmlns="http://www.w3.org/2000/svg">
<rect x="0.5" y="1.2793" width="55" height="55" rx="7.5" stroke="#9999BD" stroke-opacity="0.25"/>
<g clip-path="url(#clip0_13_3524)">
<path d="M27.9997 19.4453C28.9972 19.4453 30.0203 19.471 31.012 19.513L32.1833 19.569L33.3045 19.6355L34.3545 19.7066L35.3135 19.7813C36.3542 19.861 37.3335 20.3051 38.0791 21.0355C38.8247 21.766 39.2888 22.7359 39.3898 23.7748L39.4365 24.2706L39.524 25.3323C39.6057 26.4325 39.6663 27.6318 39.6663 28.7786C39.6663 29.9255 39.6057 31.1248 39.524 32.225L39.4365 33.2866C39.4213 33.457 39.4062 33.6215 39.3898 33.7825C39.2888 34.8215 38.8245 35.7917 38.0787 36.5221C37.3328 37.2526 36.3533 37.6966 35.3123 37.776L34.3557 37.8495L33.3057 37.9218L32.1833 37.9883L31.012 38.0443C30.0085 38.0879 29.0041 38.1105 27.9997 38.112C26.9952 38.1105 25.9909 38.0879 24.9873 38.0443L23.816 37.9883L22.6948 37.9218L21.6448 37.8495L20.6858 37.776C19.6451 37.6963 18.6658 37.2522 17.9202 36.5218C17.1746 35.7913 16.7105 34.8213 16.6095 33.7825L16.5628 33.2866L16.4753 32.225C16.3861 31.0783 16.3387 29.9288 16.333 28.7786C16.333 27.6318 16.3937 26.4325 16.4753 25.3323L16.5628 24.2706C16.578 24.1003 16.5932 23.9358 16.6095 23.7748C16.7105 22.7361 17.1744 21.7663 17.9198 21.0359C18.6651 20.3055 19.6442 19.8612 20.6847 19.7813L21.6425 19.7066L22.6925 19.6355L23.8148 19.569L24.9862 19.513C25.9901 19.4694 26.9948 19.4468 27.9997 19.4453ZM27.9997 21.7786C27.0372 21.7786 26.0467 21.8043 25.083 21.844L23.942 21.8988L22.8465 21.963L21.8175 22.033L20.8748 22.1065C20.3794 22.1416 19.9124 22.3511 19.5566 22.6977C19.2008 23.0443 18.9793 23.5056 18.9312 24C18.7947 25.4105 18.6663 27.1663 18.6663 28.7786C18.6663 30.391 18.7947 32.1468 18.9312 33.5573C19.0303 34.5746 19.8377 35.3656 20.8748 35.4508L21.8175 35.5231L22.8465 35.5931L23.942 35.6585L25.083 35.7133C26.0467 35.753 27.0372 35.7786 27.9997 35.7786C28.9622 35.7786 29.9527 35.753 30.9163 35.7133L32.0573 35.6585L33.1528 35.5943L34.1818 35.5243L35.1245 35.4508C35.62 35.4157 36.087 35.2062 36.4427 34.8596C36.7985 34.513 37.0201 34.0517 37.0682 33.5573C37.2047 32.1468 37.333 30.391 37.333 28.7786C37.333 27.1663 37.2047 25.4105 37.0682 24C37.0201 23.5056 36.7985 23.0443 36.4427 22.6977C36.087 22.3511 35.62 22.1416 35.1245 22.1065L34.1818 22.0341L33.1528 21.9641L32.0573 21.8988L30.9163 21.844C29.9447 21.8022 28.9722 21.7804 27.9997 21.7786ZM25.6663 25.9495C25.6663 25.8355 25.694 25.7231 25.7473 25.6223C25.8005 25.5214 25.8775 25.4351 25.9717 25.3709C26.0659 25.3066 26.1744 25.2663 26.2877 25.2535C26.401 25.2406 26.5157 25.2557 26.6218 25.2973L26.7163 25.344L31.6163 28.172C31.7139 28.2283 31.7965 28.3073 31.857 28.4023C31.9175 28.4973 31.9542 28.6056 31.9639 28.7178C31.9736 28.83 31.9561 28.943 31.9129 29.047C31.8696 29.151 31.8019 29.2431 31.7155 29.3153L31.6163 29.3853L26.7163 32.2145C26.6176 32.2717 26.5064 32.3038 26.3924 32.3082C26.2783 32.3126 26.165 32.289 26.0621 32.2395C25.9593 32.1901 25.8701 32.1162 25.8024 32.0244C25.7346 31.9326 25.6903 31.8256 25.6733 31.7128L25.6663 31.6078V25.9495Z" fill="white"/>
</g>
<defs>
<clipPath id="clip0_13_3524">
<rect width="28" height="28" fill="white" transform="translate(14 14.7793)"/>
</clipPath>
</defs>
</svg>
