<svg width="64" height="64" viewBox="0 0 64 64" fill="none" xmlns="http://www.w3.org/2000/svg">
<circle cx="32" cy="32" r="31.5" stroke="#F1EAFF"/>
<g clip-path="url(#clip0_13_3697)">
<path d="M32 31C33.6569 31 35 29.6569 35 28C35 26.3431 33.6569 25 32 25C30.3431 25 29 26.3431 29 28C29 29.6569 30.3431 31 32 31Z" fill="#7842E8"/>
<path d="M46.3337 24.0003C46.3315 22.3213 45.6636 20.7116 44.4763 19.5243C43.2891 18.337 41.6794 17.6691 40.0003 17.667H24.0003C22.3213 17.6691 20.7116 18.337 19.5243 19.5243C18.337 20.7116 17.6691 22.3213 17.667 24.0003V40.0003C17.6691 41.6794 18.337 43.2891 19.5243 44.4763C20.7116 45.6636 22.3213 46.3315 24.0003 46.3337H40.0003C41.6794 46.3315 43.2891 45.6636 44.4763 44.4763C45.6636 43.2891 46.3315 41.6794 46.3337 40.0003V24.0003ZM38.3337 38.667C38.3337 38.9322 38.2283 39.1866 38.0408 39.3741C37.8532 39.5616 37.5989 39.667 37.3337 39.667C37.0684 39.667 36.8141 39.5616 36.6266 39.3741C36.439 39.1866 36.3337 38.9322 36.3337 38.667V37.3337C36.3337 36.1844 35.8771 35.0822 35.0645 34.2695C34.2518 33.4569 33.1496 33.0003 32.0003 33.0003C30.8511 33.0003 29.7489 33.4569 28.9362 34.2695C28.1235 35.0822 27.667 36.1844 27.667 37.3337V38.667C27.667 38.9322 27.5616 39.1866 27.3741 39.3741C27.1866 39.5616 26.9322 39.667 26.667 39.667C26.4018 39.667 26.1474 39.5616 25.9599 39.3741C25.7723 39.1866 25.667 38.9322 25.667 38.667V37.3337C25.6711 36.2212 25.9693 35.1297 26.5312 34.1696C27.0932 33.2096 27.899 32.4152 28.867 31.867C28.0604 31.2184 27.475 30.3355 27.1915 29.3401C26.908 28.3446 26.9405 27.2858 27.2843 26.3096C27.6281 25.3333 28.2664 24.4879 29.1111 23.8898C29.9558 23.2917 30.9653 22.9706 32.0003 22.9706C33.0353 22.9706 34.0448 23.2917 34.8895 23.8898C35.7342 24.4879 36.3725 25.3333 36.7164 26.3096C37.0602 27.2858 37.0926 28.3446 36.8091 29.3401C36.5256 30.3355 35.9402 31.2184 35.1337 31.867C36.1016 32.4152 36.9074 33.2096 37.4694 34.1696C38.0314 35.1297 38.3295 36.2212 38.3337 37.3337V38.667Z" fill="#7842E8"/>
</g>
<defs>
<clipPath id="clip0_13_3697">
<rect width="32" height="32" fill="white" transform="translate(16 16)"/>
</clipPath>
</defs>
</svg>
