<svg width="58" height="58" viewBox="0 0 58 58" fill="none" xmlns="http://www.w3.org/2000/svg">
<rect width="58" height="58" rx="8.22422" fill="#EEC01D"/>
<g clip-path="url(#clip0_13_4457)">
<path d="M45.9998 28.5244C45.9318 27.8444 45.6258 27.1984 45.0818 26.7224C45.0138 26.6544 44.9458 26.6204 44.8778 26.5524C44.8438 26.5524 44.8438 26.5184 44.8098 26.5184C44.7758 26.4844 44.7078 26.4504 44.6738 26.4164C44.6398 26.4164 44.6058 26.3824 44.5718 26.3824C44.5378 26.3484 44.4698 26.3484 44.4358 26.3144C44.4018 26.3144 44.3678 26.2804 44.3338 26.2804C44.2998 26.2464 44.2318 26.2464 44.1978 26.2464C44.1638 26.2464 44.1298 26.2124 44.0958 26.2124C44.0618 26.2124 43.9938 26.1784 43.9598 26.1784C43.9258 26.1784 43.8918 26.1784 43.8578 26.1444C43.8238 26.1444 43.7558 26.1444 43.7218 26.1104C43.6878 26.1104 43.6538 26.1104 43.6198 26.1104C43.5858 26.1104 43.5178 26.1104 43.4498 26.1104C43.4158 26.1104 43.3818 26.1104 43.3478 26.1104C43.3138 26.1104 43.2798 26.1104 43.2458 26.1104C43.1778 26.1104 43.1438 26.1104 43.0758 26.1104C43.0418 26.1104 43.0078 26.1104 42.9738 26.1104C42.9058 26.1104 42.8718 26.1104 42.8038 26.1444C42.7698 26.1444 42.7358 26.1444 42.7018 26.1784C42.6678 26.1784 42.5998 26.2124 42.5658 26.2124C42.5318 26.2124 42.4978 26.2464 42.4638 26.2464C42.4298 26.2804 42.3618 26.2804 42.3278 26.3144C42.2938 26.3144 42.2598 26.3484 42.2258 26.3484C42.1918 26.3824 42.1238 26.3824 42.0898 26.4164C42.0558 26.4504 42.0218 26.4504 41.9878 26.4844C41.9538 26.5184 41.8858 26.5524 41.8518 26.5864C41.8178 26.6204 41.7838 26.6204 41.7498 26.6544C41.7158 26.6884 41.6478 26.7224 41.6138 26.7564C41.5798 26.7904 41.5798 26.7904 41.5458 26.8244C41.4778 26.8924 41.4098 26.9604 41.3418 27.0284L38.2818 30.1904C38.4858 30.5644 38.5878 30.9724 38.5878 31.4144C38.5878 32.9104 37.3638 34.1344 35.8678 34.1344H30.2918C29.9178 34.1344 29.6118 33.8284 29.6118 33.4544C29.6118 33.0804 29.9178 32.7744 30.2918 32.7744H35.8338C36.5818 32.7744 37.1938 32.1624 37.1938 31.4144C37.1938 30.9724 36.9558 30.5644 36.6158 30.3264C36.3438 30.1904 36.0038 30.0884 35.6638 30.0884H35.3918C35.3578 30.0884 35.3578 30.0884 35.3238 30.0884H27.9458C27.4358 29.8844 26.8918 29.7144 26.3138 29.5784C25.9058 29.5104 25.4638 29.4424 25.0558 29.4084C24.9198 29.4084 24.7838 29.4084 24.6138 29.4084C21.6558 29.4084 19.0718 30.6664 17.5078 33.0464L24.7498 40.1524L24.9878 39.9484C25.2598 39.6764 25.5998 39.5064 25.9738 39.4384C26.1098 39.4044 26.2118 39.4044 26.3478 39.4044H35.1878C36.7518 39.4044 38.2478 38.7924 39.3698 37.7044C39.3698 37.7044 39.4378 37.6024 39.7778 37.2284C39.9138 37.0584 40.0838 36.8544 40.3218 36.5824C40.3898 36.5144 40.4238 36.4464 40.4918 36.3784C40.6618 36.1744 40.8318 35.9364 41.0698 35.6984C41.3418 35.3584 41.6818 34.9844 42.0558 34.5084C42.3278 34.2024 42.6338 33.8284 42.9398 33.4544C43.1778 33.1824 43.4158 32.8764 43.6878 32.5704C43.7558 32.5024 43.7898 32.4344 43.8578 32.3664C44.3338 31.8224 44.8438 31.2104 45.3878 30.5304C45.5578 30.3264 45.6938 30.0884 45.7958 29.8504C45.9658 29.3744 46.0338 28.9664 45.9998 28.5244Z" fill="white"/>
<path d="M16.25 33.6924C16.182 33.7264 16.114 33.7264 16.08 33.7604C16.046 33.7604 16.046 33.7604 16.012 33.7944C15.91 33.8284 15.808 33.8964 15.706 33.9644C15.672 33.9644 15.672 33.9984 15.638 33.9984C15.536 34.0664 15.434 34.1344 15.366 34.2364L12.204 37.3984C11.932 37.6704 11.932 38.0784 12.204 38.3504L19.65 45.8644C19.684 45.8984 19.718 45.9324 19.752 45.9664C19.752 45.9664 19.786 45.9664 19.786 46.0004C19.82 46.0004 19.82 46.0344 19.854 46.0344H19.888C19.922 46.0344 19.922 46.0684 19.956 46.0684C19.99 46.0684 19.99 46.0684 20.024 46.0684C20.058 46.0684 20.058 46.0684 20.092 46.0684C20.126 46.0684 20.126 46.0684 20.16 46.0684C20.194 46.0684 20.194 46.0684 20.228 46.0684C20.262 46.0684 20.262 46.0684 20.296 46.0344H20.33C20.364 46.0344 20.398 46.0004 20.398 46.0004H20.432C20.466 45.9664 20.5 45.9324 20.534 45.9324L23.764 42.7704C24.036 42.4984 24.24 42.1244 24.308 41.7504L16.25 33.6924Z" fill="white"/>
<path d="M32.9104 12C28.8644 12 25.5664 15.298 25.5664 19.31C25.5664 23.356 28.8644 26.62 32.8764 26.62C36.9224 26.62 40.1864 23.322 40.1864 19.31C40.2204 15.298 36.9224 12 32.9104 12ZM33.5904 22.608V23.016C33.5904 23.39 33.2844 23.696 32.9104 23.696C32.5364 23.696 32.2304 23.39 32.2304 23.016V22.608C31.3804 22.336 30.7684 21.52 30.7684 20.568C30.7684 20.194 31.0744 19.888 31.4484 19.888C31.8224 19.888 32.1284 20.194 32.1284 20.568C32.1284 21.01 32.4684 21.35 32.9104 21.35C33.3184 21.35 33.6924 21.146 33.6924 20.67C33.6924 20.364 33.3864 20.126 32.7404 19.99C31.0064 19.582 30.7344 18.562 30.7344 17.984C30.7344 17.066 31.3464 16.318 32.1964 16.046V15.638C32.1964 15.264 32.5024 14.958 32.8764 14.958C33.2504 14.958 33.5564 15.264 33.5564 15.638V16.08C34.3044 16.318 34.8484 16.964 34.9844 17.746C35.0524 18.12 34.8144 18.46 34.4404 18.528C34.0664 18.596 33.7264 18.358 33.6584 17.984C33.5904 17.61 33.2844 17.338 32.8764 17.338C32.4684 17.338 32.0944 17.542 32.0944 18.018C32.0944 18.12 32.0944 18.494 33.0464 18.698C34.7804 19.106 35.0524 20.126 35.0524 20.704C35.0524 21.588 34.4404 22.336 33.5904 22.608Z" fill="white"/>
</g>
<defs>
<clipPath id="clip0_13_4457">
<rect width="34" height="34" fill="white" transform="translate(12 12)"/>
</clipPath>
</defs>
</svg>
