<svg width="64" height="64" viewBox="0 0 64 64" fill="none" xmlns="http://www.w3.org/2000/svg">
<g clip-path="url(#clip0_13_3714)">
<path d="M18.2402 42.8802C18.2402 44.2882 19.3922 45.4402 20.8002 45.4402H43.2002C44.6082 45.4402 45.7602 44.2882 45.7602 42.8802V28.1602H18.2402V42.8802ZM27.2322 35.1682C27.6162 34.7842 28.2242 34.7842 28.5762 35.1682L30.4642 37.0562L35.3922 32.1282C35.7762 31.7442 36.3842 31.7442 36.7362 32.1282C37.1202 32.5122 37.1202 33.1202 36.7362 33.4722L31.1682 39.0722C30.9762 39.2642 30.7202 39.3602 30.4642 39.3602C30.2082 39.3602 29.9842 39.2642 29.7922 39.0722L27.2322 36.5122C26.8802 36.1282 26.8802 35.5522 27.2322 35.1682Z" fill="#7842E8"/>
<path d="M43.2002 20.8002H41.9202V20.2562C41.9202 19.1362 41.0242 18.2402 39.9042 18.2402H38.4962C37.3762 18.2402 36.4802 19.1362 36.4802 20.2562V20.8002H27.5202V20.2562C27.5202 19.1362 26.6242 18.2402 25.5042 18.2402H24.0962C22.9762 18.2402 22.0802 19.1362 22.0802 20.2562V20.8002H20.8002C19.3922 20.8002 18.2402 21.9522 18.2402 23.3602V26.8802H45.7602V23.3602C45.7602 21.9522 44.6082 20.8002 43.2002 20.8002ZM25.6002 21.3122V22.7202V23.0402H24.0002V22.7202V21.3122V20.2242C24.0002 20.1602 24.0322 20.1282 24.0962 20.1282H25.5042C25.5682 20.1282 25.6002 20.1602 25.6002 20.2242V21.3122ZM40.0002 21.3122V22.7202V23.0402H38.4002V22.7202V21.3122V20.2242C38.4002 20.1602 38.4322 20.1282 38.4962 20.1282H39.9042C39.9682 20.1282 40.0002 20.1602 40.0002 20.2242V21.3122Z" fill="#7842E8"/>
</g>
<circle cx="32" cy="32" r="31.5" stroke="#F1EAFF"/>
<defs>
<clipPath id="clip0_13_3714">
<rect width="32" height="32" fill="white" transform="translate(16 16)"/>
</clipPath>
</defs>
</svg>
