<svg width="59" height="58" viewBox="0 0 59 58" fill="none" xmlns="http://www.w3.org/2000/svg">
<rect x="0.666992" width="58" height="58" rx="8.22422" fill="#14B441"/>
<g clip-path="url(#clip0_13_4436)">
<path d="M25.994 24.5466C29.7418 24.5466 32.78 21.5084 32.78 17.7606C32.78 14.0128 29.7418 10.9746 25.994 10.9746C22.2462 10.9746 19.208 14.0128 19.208 17.7606C19.208 21.5084 22.2462 24.5466 25.994 24.5466Z" fill="white"/>
<path d="M32.5068 31.9179L33.4428 31.8399L34.1838 31.2159C34.4568 30.9819 34.7688 30.7869 35.0808 30.6309C33.9498 28.0959 31.4148 26.3799 28.5288 26.3799H23.4588C19.8318 26.3799 16.7508 29.1099 16.3218 32.7369L15.6198 38.5869C15.5418 39.3669 16.0098 40.0689 16.7508 40.2249C19.6758 40.8489 22.7568 41.1999 25.9938 41.1999C26.3448 41.1999 26.6958 41.1999 27.0468 41.1999C26.7348 39.9129 27.0468 38.5479 27.9438 37.4949L28.5678 36.7929L28.6458 35.8179C28.8018 33.7119 30.4398 32.1129 32.5068 31.9179Z" fill="white"/>
<path d="M44.2462 38.8597L43.6222 38.1187C43.3492 37.7677 43.1542 37.3777 43.1152 36.9487L43.0372 35.9737C42.9592 34.9597 42.1402 34.1407 41.1262 34.0627L40.1512 33.9847C39.7222 33.9457 39.2932 33.7897 38.9812 33.4777L38.2402 32.8537C37.4602 32.1907 36.3292 32.1907 35.5492 32.8537L34.8082 33.4777C34.4572 33.7507 34.0672 33.9457 33.6382 33.9847L32.6632 34.0627C31.6492 34.1407 30.8302 34.9597 30.7522 35.9737L30.6742 36.9487C30.6352 37.3777 30.4792 37.8067 30.1672 38.1187L29.5822 38.8597C28.9192 39.6397 28.9192 40.7707 29.5822 41.5507L30.2062 42.2917C30.4792 42.6427 30.6742 43.0327 30.7132 43.4617L30.7912 44.4367C30.8692 45.4507 31.6882 46.2697 32.7022 46.3477L33.6772 46.4257C34.1062 46.4647 34.5352 46.6207 34.8472 46.9327L35.5882 47.5567C36.3682 48.2197 37.4992 48.2197 38.2792 47.5567L39.0202 46.9327C39.3712 46.6597 39.7612 46.4647 40.1902 46.4257L41.1652 46.3477C42.1792 46.2697 42.9982 45.4507 43.0762 44.4367L43.1542 43.4617C43.1932 43.0327 43.3492 42.6037 43.6612 42.2917L44.2852 41.5507C44.9092 40.7707 44.9092 39.6397 44.2462 38.8597ZM37.4602 43.3837V44.2027C37.4602 44.2807 37.3822 44.3587 37.3042 44.3587H36.5242C36.4462 44.3587 36.3682 44.2807 36.3682 44.2027V43.4227C35.5492 43.3837 34.9252 42.7597 34.8472 41.9407C34.8472 41.8627 34.9252 41.7847 35.0032 41.7847H35.7832C35.8612 41.7847 35.9002 41.8237 35.9392 41.9017C35.9782 42.1357 36.2122 42.3307 36.4852 42.3307H37.1872C37.5772 42.3307 37.9672 42.0187 38.0062 41.6287C38.0452 41.1607 37.6942 40.7707 37.2262 40.7707H36.7192C35.7442 40.7707 34.8472 40.0687 34.7692 39.0937C34.6522 38.0797 35.3932 37.1827 36.3682 37.0657V36.2857C36.3682 36.2077 36.4462 36.1297 36.5242 36.1297H37.3042C37.3822 36.1297 37.4602 36.2077 37.4602 36.2857V37.0657C38.2792 37.1047 38.9032 37.7287 38.9812 38.5477C38.9812 38.6257 38.9032 38.7037 38.8252 38.7037H38.0452C37.9672 38.7037 37.9282 38.6647 37.8892 38.5867C37.8502 38.3527 37.6162 38.1577 37.3432 38.1577H36.6412C36.2122 38.1577 35.8612 38.4697 35.8222 38.8597C35.7832 39.3277 36.1342 39.7177 36.6022 39.7177H37.1872C38.2792 39.7177 39.1762 40.6537 39.0592 41.7847C38.9812 42.5647 38.2792 43.2277 37.4602 43.3837Z" fill="white"/>
</g>
<defs>
<clipPath id="clip0_13_4436">
<rect width="39" height="39" fill="white" transform="translate(10.667 10)"/>
</clipPath>
</defs>
</svg>
