<svg width="124" height="36" viewBox="0 0 124 36" fill="none" xmlns="http://www.w3.org/2000/svg">
<g clip-path="url(#clip0_13_4488)">
<path d="M54.875 7.09766H57.6259V25.9424H68.0663V28.2818H54.875V7.09766Z" fill="#7842E8"/>
<path d="M70.3184 20.4917C70.3184 15.9213 72.9754 12.4268 77.3508 12.4268C81.4303 12.4268 84.1956 15.5387 84.1956 20.1596V21.1921H73.0476C73.127 23.9213 74.6721 26.3546 77.5314 26.3546C79.3508 26.3546 80.9321 25.4448 81.387 23.7986H83.9501C83.3725 26.6867 80.7949 28.6722 77.4519 28.6722C72.9249 28.6722 70.3184 25.0044 70.3184 20.4917ZM81.4736 19.1127C81.3436 16.5856 79.6974 14.7805 77.3292 14.7805C74.8093 14.7805 73.2642 16.7661 73.0837 19.1127H81.4736Z" fill="#7842E8"/>
<path d="M87.3647 29.784H90.0651C90.3106 31.3003 91.8774 32.1812 93.8052 32.1812C96.2961 32.1812 97.7546 30.6505 97.7546 28.1451V25.1053L97.964 25.1992C97.5873 26.1386 96.9274 26.9373 96.0761 27.4846C95.2247 28.0319 94.2241 28.3006 93.2131 28.2534C89.3359 28.2534 86.7871 24.9826 86.7871 20.4627C86.7871 15.7118 89.5669 12.4266 93.2853 12.4266C94.3446 12.3791 95.3892 12.6883 96.2519 13.3049C97.1146 13.9215 97.7455 14.8097 98.0434 15.8274H97.8124V12.8238H100.412V28.1017C100.412 32.0729 97.7546 34.5061 93.7474 34.5061C90.2528 34.5061 87.6969 32.6866 87.3647 29.784ZM97.7546 20.5061V20.1739C97.7546 17.2281 96.3106 14.766 93.6824 14.766C90.9604 14.766 89.5091 17.3797 89.5091 20.4122C89.5091 23.4447 90.9748 26.0223 93.603 26.0223C96.2312 26.0223 97.7185 23.3003 97.7185 20.5061H97.7546Z" fill="#7842E8"/>
<path d="M103.972 20.4917C103.972 15.9213 106.629 12.4268 110.997 12.4268C115.084 12.4268 117.849 15.5387 117.849 20.1596V21.1921H106.679C106.759 23.9213 108.304 26.3546 111.163 26.3546C112.983 26.3546 114.564 25.4448 115.019 23.7986H117.582C117.004 26.6867 114.427 28.6722 111.084 28.6722C106.578 28.6722 103.972 25.0044 103.972 20.4917ZM115.127 19.1127C114.997 16.5856 113.351 14.7805 110.983 14.7805C108.463 14.7805 106.918 16.7661 106.73 19.1127H115.127Z" fill="#7842E8"/>
<path d="M121.3 6.95996H123.979V28.2813H121.3V6.95996Z" fill="#7842E8"/>
<path d="M2.37571 32.5206C0.613974 30.1091 2.0508 25.712 5.64647 20.9105C5.27101 20.4556 4.92444 20.008 4.60675 19.5459C0.317945 25.1055 -1.21996 30.3546 1.03997 33.4593C2.28184 35.1632 4.46957 35.9719 7.29989 35.9719C11.5526 35.9719 17.2277 34.1235 23.1844 30.6939C22.3901 30.5278 21.6104 30.3329 20.8161 30.0946C12.4407 34.5495 4.75838 35.7553 2.37571 32.5206Z" fill="#7842E8"/>
<path d="M41.7115 13.7991C44.5996 9.09872 45.2133 5.13482 43.3794 2.59331C42.1375 0.896555 39.9425 0.0878906 37.1267 0.0878906C33.0472 0.0878906 27.6537 1.79186 21.9642 4.9471C21.6032 4.86767 21.2422 4.80269 20.9101 4.74493C20.448 4.65107 19.9931 4.58609 19.5454 4.5211C19.2133 4.47056 18.8812 4.43446 18.5563 4.39836C18.0653 4.34782 17.5815 4.31172 17.1122 4.28284C16.8667 4.28284 16.6212 4.28284 16.3902 4.28284H15.6682C12.874 4.1528 10.0916 4.72367 7.57432 5.94349C7.27107 6.10233 6.98226 6.28284 6.70789 6.45612L6.28912 6.75937L5.86313 7.09872C5.71275 7.21923 5.57045 7.34947 5.43713 7.48861C5.29995 7.6258 5.15554 7.77742 5.02558 7.92905C4.77542 8.21471 4.54389 8.51618 4.33244 8.83157C3.35359 10.4107 3.02734 12.3086 3.42269 14.124C3.75991 15.7175 4.41295 17.2274 5.34327 18.5644C5.66247 19.0441 6.00964 19.5046 6.38298 19.9435C6.77583 20.451 7.20026 20.9333 7.65374 21.3875C8.02919 21.7846 8.44074 22.1745 8.86674 22.55C9.77909 23.3566 10.7439 24.102 11.7548 24.781C12.8113 25.4981 13.9082 26.1538 15.04 26.7449H15.1628C16.087 27.2215 17.0328 27.6547 17.9714 28.0518C18.6934 28.3623 19.4155 28.6366 20.1375 28.8893C20.7295 29.0987 21.3288 29.2864 21.9209 29.4669C22.7007 29.6908 23.4732 29.8785 24.2386 30.0518C26.2559 30.5064 28.3152 30.7484 30.383 30.7738C31.6854 30.779 32.9856 30.6654 34.2675 30.4345C37.0689 29.9074 39.3938 28.7738 40.9101 27.0337C43.4227 24.1457 43.1772 20.0085 40.2602 15.9435C40.7873 15.1926 41.2711 14.5067 41.7115 13.7991ZM42.0436 3.56804C43.4443 5.48139 42.8162 8.88933 40.3108 12.9543C37.8054 17.0193 33.6249 21.3442 28.5851 25.1348C28.0797 25.0626 27.5454 24.9688 26.975 24.846L27.1122 24.7521C31.1555 21.7919 34.5129 18.3623 36.5346 15.0843C38.7007 11.5897 39.1194 8.58609 37.7404 6.70161C36.3613 4.81713 33.4083 4.29728 29.401 5.25757C27.347 5.79163 25.3571 6.54695 23.466 7.51027C21.3189 8.60459 19.2662 9.87488 17.3288 11.3081C15.3118 12.7665 13.425 14.3972 11.6898 16.1818C11.4016 15.8361 11.1362 15.4719 10.8956 15.0915C12.696 13.3876 14.6036 11.8007 16.6068 10.3406C27.3577 2.50666 38.9895 -0.59803 42.0436 3.56804ZM33.6898 24.355C32.976 24.9502 32.0702 25.2658 31.1411 25.2431C32.1375 24.4489 33.1002 23.6354 34.0292 22.8027C34.1124 23.0686 34.1249 23.3517 34.0654 23.6239C34.0059 23.8961 33.8765 24.1481 33.6898 24.355ZM25.4877 22.5355C27.882 20.8628 29.9396 18.7538 31.5527 16.3189C32.9967 13.994 33.2566 11.9868 32.2747 10.6655C30.4046 8.09511 24.6501 9.32255 18.8956 13.5175C16.9962 14.8812 15.2953 16.502 13.8415 18.3334C13.466 18.0085 13.1194 17.698 12.809 17.3875C14.4892 15.6397 16.326 14.0494 18.2963 12.6366C21.7444 10.0192 25.6462 8.06097 29.8054 6.86045C30.8679 6.58952 31.9581 6.44174 33.0545 6.42002C34.6429 6.42002 35.8126 6.83157 36.4191 7.6619C37.3649 8.96876 36.9028 11.3514 35.1483 14.1601C32.7476 17.7823 29.6887 20.9221 26.1303 23.4164C25.7043 23.7124 25.2927 24.0157 24.8812 24.2901C24.448 24.1601 23.9931 24.0157 23.5454 23.8496C24.188 23.4525 24.8379 23.0121 25.4877 22.5355ZM21.5743 23.0626C20.6068 22.6438 19.6249 22.1529 18.6285 21.6186C17.4258 20.946 16.2681 20.196 15.1628 19.3731C16.5327 17.6542 18.134 16.1332 19.9209 14.8532C23.4588 12.2684 26.9823 10.9904 29.1267 10.9904C29.4668 10.949 29.8119 10.9868 30.135 11.1008C30.4582 11.2147 30.7506 11.4018 30.9895 11.6475C31.5093 12.3695 31.2061 13.8135 30.1736 15.4525C28.6698 17.7097 26.7603 19.6683 24.5418 21.2287C23.5981 21.9107 22.6064 22.5236 21.5743 23.0626ZM10.1519 13.4886C10.1519 13.4164 10.1158 13.3514 10.1086 13.2864C10.0519 13.0438 10.0531 12.7913 10.1121 12.5492C10.171 12.3071 10.2861 12.0823 10.448 11.8929C11.1736 11.2828 12.0998 10.9638 13.0472 10.9976C12.0292 11.8135 11.0689 12.6438 10.1519 13.4886ZM39.661 25.9363C37.2205 28.7449 32.0869 29.633 26.3108 28.7594C26.9534 28.3406 27.596 27.8929 28.2458 27.4308C27.4517 27.3516 26.6632 27.2238 25.8848 27.0482C25.235 27.4886 24.5996 27.9074 23.9498 28.2901C23.3794 28.1601 22.8162 28.0085 22.2458 27.8424C22.9173 27.4814 23.6104 27.0771 24.2963 26.6511C23.6104 26.4561 22.9028 26.2323 22.1953 25.9724C21.4732 26.3984 20.7512 26.781 20.0292 27.1204C19.3649 26.8821 18.6934 26.615 18.022 26.3117C18.9131 26.0719 19.7825 25.7579 20.6212 25.3731C19.8992 25.0771 19.1772 24.7594 18.5057 24.42C17.5228 24.785 16.491 25.0015 15.4444 25.0626C14.6573 24.6366 13.8992 24.1962 13.1844 23.7124C13.1767 23.6477 13.1767 23.5822 13.1844 23.5175C13.2238 22.8323 13.4136 22.1643 13.7404 21.5608C13.2638 21.2215 12.8162 20.8749 12.3902 20.5211C12.0341 21.183 11.7763 21.8932 11.6249 22.6294C10.9728 22.1447 10.3462 21.6265 9.7476 21.0771C10.1503 20.4749 10.5841 19.8941 11.0472 19.337C10.6428 18.9666 10.2595 18.5737 9.89923 18.1601C9.40825 18.7521 8.9606 19.337 8.55627 19.9218C8.16639 19.515 7.79767 19.0885 7.45157 18.6438C7.92089 18.0879 8.4263 17.5392 8.95338 16.9832C8.61836 16.5107 8.32829 16.0079 8.08695 15.4814C7.531 16.059 6.98948 16.6366 6.4985 17.2359C5.81135 16.1933 5.32185 15.0332 5.05446 13.8135C4.86143 12.9744 4.87076 12.1013 5.08167 11.2665C5.29258 10.4316 5.69902 9.65888 6.26746 9.01208C8.60681 6.31894 13.7981 5.27201 19.7693 6.2323C18.3974 7.06984 17.0111 7.99403 15.6249 8.99764C15.4516 9.13482 15.2711 9.26479 15.0906 9.39475C12.3324 9.12038 10.3108 9.60414 9.22775 10.781C8.99418 11.0128 8.80351 11.2842 8.66457 11.5825C8.39781 12.1905 8.31983 12.8646 8.44074 13.5175C8.51393 13.9321 8.63508 14.3367 8.80175 14.7233C9.02809 15.2553 9.31132 15.7612 9.64652 16.2323C9.91672 16.6301 10.2109 17.0111 10.5274 17.3731C10.8798 17.7891 11.2558 18.1845 11.6537 18.5572C12.0292 18.9254 12.4263 19.2792 12.8595 19.6475C13.2927 20.0157 13.7115 20.3695 14.1736 20.6944C15.3268 21.5446 16.5326 22.3211 17.7837 23.0193C18.3758 23.3442 18.9895 23.6691 19.6104 23.9579C20.2314 24.2467 20.9534 24.5789 21.6321 24.8532C22.1158 25.0482 22.5924 25.2287 23.0761 25.402C23.762 25.6547 24.448 25.8713 25.1194 26.059C25.6465 26.2106 26.1664 26.3406 26.6718 26.4417C27.4437 26.6132 28.2248 26.741 29.0111 26.8244C29.5093 26.8677 29.9859 26.8966 30.4552 26.8966C31.6524 26.9472 32.8435 26.6991 33.9209 26.1745C34.2771 25.9894 34.5993 25.7453 34.874 25.4525C35.4155 24.8605 36.1303 23.5897 35.2855 21.5175C36.6626 20.1846 37.9574 18.7692 39.1628 17.2792C41.4227 20.6077 41.5888 23.7269 39.661 25.9363Z" fill="#7842E8"/>
<path d="M7.0908 22.4111C5.70452 25.1981 5.47348 27.6747 6.68647 29.3425C7.61788 30.6205 9.27131 31.2342 11.3941 31.2342C13.9759 31.1325 16.5135 30.5318 18.867 29.4653C18.1016 29.1909 17.3291 28.9093 16.6071 28.5772C12.376 30.0573 9.14135 29.9274 8.01499 28.375C7.67209 27.8747 7.49989 27.2771 7.52402 26.6711C7.5722 25.5822 7.85285 24.5162 8.34712 23.5447C7.94279 23.1765 7.48792 22.801 7.0908 22.4111Z" fill="#7842E8"/>
<path d="M7.94326 3.39386C8.27659 3.39672 8.60326 3.30049 8.8818 3.11738C9.16035 2.93428 9.37822 2.67255 9.50777 2.36541C9.63732 2.05827 9.6727 1.71957 9.60943 1.39228C9.54616 1.065 9.38708 0.763895 9.15239 0.527173C8.9177 0.290451 8.61798 0.128787 8.29125 0.0626954C7.96453 -0.00339593 7.62553 0.0290655 7.31729 0.15596C7.00904 0.282855 6.74545 0.498462 6.55994 0.775421C6.37444 1.05238 6.2754 1.3782 6.27539 1.71155C6.27537 2.15523 6.45063 2.58096 6.76301 2.89604C7.07539 3.21113 7.49959 3.39005 7.94326 3.39386Z" fill="#7842E8"/>
</g>
<defs>
<clipPath id="clip0_13_4488">
<rect width="124" height="35.9422" fill="white" transform="translate(0 0.0292969)"/>
</clipPath>
</defs>
</svg>
