<svg width="172" height="50" viewBox="0 0 172 50" fill="none" xmlns="http://www.w3.org/2000/svg">
<g clip-path="url(#clip0_13_3502)">
<path d="M76 9.78906H79.81V35.8891H94.27V39.1291H76V9.78906Z" fill="#EFF2F4"/>
<path d="M97.3896 28.3399C97.3896 22.0099 101.07 17.1699 107.13 17.1699C112.78 17.1699 116.61 21.4799 116.61 27.8799V29.3099H101.17C101.28 33.0899 103.42 36.4599 107.38 36.4599C109.9 36.4599 112.09 35.1999 112.72 32.9199H116.27C115.47 36.9199 111.9 39.6699 107.27 39.6699C101 39.6699 97.3896 34.5899 97.3896 28.3399ZM112.84 26.4299C112.66 22.9299 110.38 20.4299 107.1 20.4299C103.61 20.4299 101.47 23.1799 101.22 26.4299H112.84Z" fill="#EFF2F4"/>
<path d="M120.999 41.2107H124.739C125.079 43.3107 127.249 44.5307 129.919 44.5307C133.369 44.5307 135.389 42.4107 135.389 38.9407V34.7307L135.679 34.8607C135.157 36.1617 134.244 37.268 133.064 38.026C131.885 38.784 130.499 39.1561 129.099 39.0907C123.729 39.0907 120.199 34.5607 120.199 28.3007C120.199 21.7207 124.049 17.1707 129.199 17.1707C130.666 17.1048 132.113 17.5331 133.308 18.3871C134.503 19.241 135.377 20.4712 135.789 21.8807H135.469V17.7207H139.069V38.8807C139.069 44.3807 135.389 47.7507 129.839 47.7507C124.999 47.7507 121.459 45.2307 120.999 41.2107ZM135.389 28.3607V27.9007C135.389 23.8207 133.389 20.4107 129.749 20.4107C125.979 20.4107 123.969 24.0307 123.969 28.2307C123.969 32.4307 125.999 36.0007 129.639 36.0007C133.279 36.0007 135.339 32.2307 135.339 28.3607H135.389Z" fill="#EFF2F4"/>
<path d="M144 28.3399C144 22.0099 147.68 17.1699 153.73 17.1699C159.39 17.1699 163.22 21.4799 163.22 27.8799V29.3099H147.75C147.86 33.0899 150 36.4599 153.96 36.4599C156.48 36.4599 158.67 35.1999 159.3 32.9199H162.85C162.05 36.9199 158.48 39.6699 153.85 39.6699C147.61 39.6699 144 34.5899 144 28.3399ZM159.45 26.4299C159.27 22.9299 156.99 20.4299 153.71 20.4299C150.22 20.4299 148.08 23.1799 147.82 26.4299H159.45Z" fill="#EFF2F4"/>
<path d="M168 9.59961H171.71V39.1296H168V9.59961Z" fill="#EFF2F4"/>
<path d="M3.2896 45.0012C0.849602 41.6612 2.8396 35.5712 7.8196 28.9212C7.2996 28.2912 6.8196 27.6712 6.3796 27.0312C0.439602 34.7312 -1.6904 42.0012 1.4396 46.3012C3.1596 48.6612 6.1896 49.7812 10.1096 49.7812C15.9996 49.7812 23.8596 47.2213 32.1096 42.4713C31.0096 42.2413 29.9296 41.9712 28.8296 41.6412C17.2296 47.8112 6.5896 49.4812 3.2896 45.0012Z" fill="#EFF2F4"/>
<path d="M57.7697 19.0701C61.7697 12.5601 62.6197 7.07008 60.0797 3.55008C58.3597 1.20008 55.3197 0.0800781 51.4197 0.0800781C45.7697 0.0800781 38.2997 2.44008 30.4197 6.81008C29.9197 6.70008 29.4197 6.61008 28.9597 6.53008C28.3197 6.40008 27.6897 6.31008 27.0697 6.22008C26.6097 6.15008 26.1497 6.10008 25.6997 6.05008C25.0197 5.98008 24.3497 5.93008 23.6997 5.89008C23.3597 5.89008 23.0197 5.89008 22.6997 5.89008H21.6997C17.8297 5.70998 13.9761 6.50063 10.4897 8.19008C10.0697 8.41008 9.6697 8.66008 9.2897 8.90008L8.7097 9.32008L8.1197 9.79008C7.91143 9.95698 7.71434 10.1374 7.5297 10.3301C7.3397 10.5201 7.1397 10.7301 6.9597 10.9401C6.61322 11.3357 6.29256 11.7533 5.9997 12.1901C4.64399 14.3772 4.19213 17.0058 4.7397 19.5201C5.20675 21.7271 6.11121 23.8183 7.3997 25.6701C7.8418 26.3345 8.32263 26.9722 8.8397 27.5801C9.3838 28.283 9.97163 28.951 10.5997 29.5801C11.1197 30.1301 11.6897 30.6701 12.2797 31.1901C13.5433 32.3073 14.8796 33.3396 16.2797 34.2801C17.743 35.2732 19.2622 36.1814 20.8297 37.0001H20.9997C22.2797 37.6601 23.5897 38.2601 24.8897 38.8101C25.8897 39.2401 26.8897 39.6201 27.8897 39.9701C28.7097 40.2601 29.5397 40.5201 30.3597 40.7701C31.4397 41.0801 32.5097 41.3401 33.5697 41.5801C36.3637 42.2097 39.2159 42.5449 42.0797 42.5801C43.8836 42.5872 45.6844 42.4299 47.4597 42.1101C51.3397 41.3801 54.5597 39.8101 56.6597 37.4001C60.1397 33.4001 59.7997 27.6701 55.7597 22.0401C56.4897 21.0001 57.1597 20.0501 57.7697 19.0701ZM58.2297 4.90008C60.1697 7.55008 59.2997 12.2701 55.8297 17.9001C52.3597 23.5301 46.5697 29.5201 39.5897 34.7701C38.8897 34.6701 38.1497 34.5401 37.3597 34.3701L37.5497 34.2401C43.1497 30.1401 47.7997 25.3901 50.5997 20.8501C53.5997 16.0101 54.1797 11.8501 52.2697 9.24008C50.3597 6.63008 46.2697 5.91008 40.7197 7.24008C37.8749 7.97975 35.1188 9.02588 32.4997 10.3601C29.526 11.8757 26.6829 13.6351 23.9997 15.6201C21.2061 17.64 18.5929 19.8984 16.1897 22.3701C15.7904 21.8913 15.423 21.3869 15.0897 20.8601C17.5832 18.5002 20.2253 16.3024 22.9997 14.2801C37.8897 3.43008 53.9997 -0.869922 58.2297 4.90008ZM46.6597 33.6901C45.671 34.5144 44.4166 34.9515 43.1297 34.9201C44.5097 33.8201 45.843 32.6934 47.1297 31.5401C47.245 31.9084 47.2623 32.3004 47.1799 32.6774C47.0975 33.0544 46.9182 33.4035 46.6597 33.6901ZM35.2997 31.1701C38.6158 28.8534 41.4656 25.9324 43.6997 22.5601C45.6997 19.3401 46.0597 16.5601 44.6997 14.7301C42.1097 11.1701 34.1397 12.8701 26.1697 18.6801C23.539 20.5689 21.1832 22.8136 19.1697 25.3501C18.6497 24.9001 18.1697 24.4701 17.7397 24.0401C20.0669 21.6193 22.6108 19.4168 25.3397 17.4601C30.1153 13.8349 35.5192 11.1228 41.2797 9.46008C42.7513 9.08484 44.2613 8.88016 45.7797 8.85008C47.9797 8.85008 49.5997 9.42008 50.4397 10.5701C51.7497 12.3801 51.1097 15.6801 48.6797 19.5701C45.3547 24.5869 41.1181 28.9354 36.1897 32.3901C35.5997 32.8001 35.0297 33.2201 34.4597 33.6001C33.8597 33.4201 33.2297 33.2201 32.6097 32.9901C33.4997 32.4401 34.3997 31.8301 35.2997 31.1701ZM29.8797 31.9001C28.5397 31.3201 27.1797 30.6401 25.7997 29.9001C24.1339 28.9686 22.5306 27.9297 20.9997 26.7901C22.8971 24.4094 25.1148 22.3028 27.5897 20.5301C32.4897 16.9501 37.3697 15.1801 40.3397 15.1801C40.8108 15.1227 41.2887 15.1751 41.7363 15.3329C42.1838 15.4908 42.5888 15.7499 42.9197 16.0901C43.6397 17.0901 43.2197 19.0901 41.7897 21.3601C39.707 24.4863 37.0622 27.1989 33.9897 29.3601C32.6827 30.3047 31.3091 31.1535 29.8797 31.9001ZM14.0597 18.6401C14.0597 18.5401 14.0097 18.4501 13.9997 18.3601C13.9212 18.0241 13.9228 17.6743 14.0045 17.339C14.0861 17.0037 14.2455 16.6924 14.4697 16.4301C15.4747 15.5851 16.7575 15.1432 18.0697 15.1901C16.6597 16.3201 15.3297 17.4701 14.0597 18.6401ZM54.9297 35.8801C51.5497 39.7701 44.4397 41.0001 36.4397 39.7901C37.3297 39.2101 38.2197 38.5901 39.1197 37.9501C38.0199 37.8404 36.9278 37.6634 35.8497 37.4201C34.9497 38.0301 34.0697 38.6101 33.1697 39.1401C32.3797 38.9601 31.5997 38.7501 30.8097 38.5201C31.7397 38.0201 32.6997 37.4601 33.6497 36.8701C32.6997 36.6001 31.7197 36.2901 30.7397 35.9301C29.7397 36.5201 28.7397 37.0501 27.7397 37.5201C26.8197 37.1901 25.8897 36.8201 24.9597 36.4001C26.1939 36.0679 27.3981 35.6331 28.5597 35.1001C27.5597 34.6901 26.5597 34.2501 25.6297 33.7801C24.2684 34.2855 22.8394 34.5855 21.3897 34.6701C20.2997 34.0801 19.2497 33.4701 18.2597 32.8001C18.249 32.7104 18.249 32.6198 18.2597 32.5301C18.3142 31.5811 18.5771 30.6559 19.0297 29.8201C18.3697 29.3501 17.7497 28.8701 17.1597 28.3801C16.6665 29.2968 16.3094 30.2804 16.0997 31.3001C15.1965 30.6287 14.3287 29.9111 13.4997 29.1501C14.0575 28.3161 14.6583 27.5116 15.2997 26.7401C14.7395 26.2271 14.2086 25.6829 13.7097 25.1101C13.0297 25.9301 12.4097 26.7401 11.8497 27.5501C11.3097 26.9867 10.799 26.3959 10.3197 25.7801C10.9697 25.0101 11.6697 24.2501 12.3997 23.4801C11.9357 22.8257 11.534 22.1293 11.1997 21.4001C10.4297 22.2001 9.6797 23.0001 8.9997 23.8301C8.04799 22.3861 7.37004 20.7794 6.9997 19.0901C6.73235 17.9278 6.74527 16.7187 7.03738 15.5624C7.32949 14.4061 7.89242 13.3359 8.6797 12.4401C11.9197 8.71008 19.1097 7.26008 27.3797 8.59008C25.4797 9.75008 23.5597 11.0301 21.6397 12.4201C21.3997 12.6101 21.1497 12.7901 20.8997 12.9701C17.0797 12.5901 14.2797 13.2601 12.7797 14.8901C12.4562 15.2111 12.1921 15.5869 11.9997 16.0001C11.6302 16.8422 11.5222 17.7759 11.6897 18.6801C11.7911 19.2542 11.9589 19.8147 12.1897 20.3501C12.5032 21.0869 12.8955 21.7877 13.3597 22.4401C13.7339 22.991 14.1413 23.5187 14.5797 24.0201C15.0677 24.5963 15.5886 25.1439 16.1397 25.6601C16.6597 26.1701 17.2097 26.6601 17.8097 27.1701C18.4097 27.6801 18.9897 28.1701 19.6297 28.6201C21.2269 29.7976 22.8969 30.873 24.6297 31.8401C25.4497 32.2901 26.2997 32.7401 27.1597 33.1401C28.0197 33.5401 29.0197 34.0001 29.9597 34.3801C30.6297 34.6501 31.2897 34.9001 31.9597 35.1401C32.9097 35.4901 33.8597 35.7901 34.7897 36.0501C35.5197 36.2601 36.2397 36.4401 36.9397 36.5801C38.0089 36.8177 39.0906 36.9946 40.1797 37.1101C40.8697 37.1701 41.5297 37.2101 42.1797 37.2101C43.8379 37.2802 45.4875 36.9366 46.9797 36.2101C47.473 35.9537 47.9194 35.6156 48.2997 35.2101C49.0497 34.3901 50.0397 32.6301 48.8697 29.7601C50.777 27.914 52.5703 25.9537 54.2397 23.8901C57.3697 28.5001 57.5997 32.8201 54.9297 35.8801Z" fill="#EFF2F4"/>
<path d="M9.82 31C7.9 34.86 7.58 38.29 9.26 40.6C10.55 42.37 12.84 43.22 15.78 43.22C19.3558 43.0791 22.8705 42.2471 26.13 40.77C25.07 40.39 24 40 23 39.54C17.14 41.59 12.66 41.41 11.1 39.26C10.6251 38.5671 10.3866 37.7394 10.42 36.9C10.4867 35.3919 10.8754 33.9155 11.56 32.57C11 32.06 10.37 31.54 9.82 31Z" fill="#EFF2F4"/>
<path d="M10.9995 4.65991C11.4611 4.66388 11.9135 4.5306 12.2993 4.277C12.6851 4.0234 12.9869 3.6609 13.1663 3.23551C13.3457 2.81013 13.3947 2.34102 13.3071 1.88774C13.2195 1.43445 12.9991 1.01742 12.6741 0.689559C12.3491 0.361699 11.9339 0.137793 11.4814 0.046257C11.0289 -0.0452795 10.5594 -0.000320494 10.1325 0.175429C9.70556 0.351178 9.34048 0.649794 9.08356 1.03338C8.82664 1.41697 8.68947 1.86824 8.68945 2.32992C8.68943 2.94442 8.93217 3.53405 9.36481 3.97044C9.79745 4.40683 10.385 4.65464 10.9995 4.65991Z" fill="#EFF2F4"/>
</g>
<defs>
<clipPath id="clip0_13_3502">
<rect width="171.74" height="49.78" fill="white"/>
</clipPath>
</defs>
</svg>
