<svg width="44" height="44" viewBox="0 0 44 44" fill="none" xmlns="http://www.w3.org/2000/svg">
<g clip-path="url(#clip0_13_3568)">
<path d="M21.9341 4.22266C19.8909 4.22266 18.2345 5.879 18.2345 7.92223C18.2345 9.55322 19.29 10.9377 20.7551 11.4299V13.9997C20.6469 14.0461 20.5408 14.0991 20.4374 14.1588L15.7606 16.8589C15.6573 16.9186 15.5584 16.984 15.4642 17.0544L13.2387 15.7695C13.5448 14.2546 12.8736 12.6483 11.4611 11.8329C9.69162 10.8113 7.42903 11.4175 6.40741 13.187C5.38579 14.9565 5.99204 17.2191 7.76152 18.2407C9.17383 19.0561 10.9002 18.8345 12.0591 17.8122L14.2847 19.0971C14.2708 19.2139 14.2637 19.3323 14.2637 19.4517V24.852C14.2637 24.9712 14.2708 25.0895 14.2847 25.2062L12.0598 26.4907C10.9009 25.4681 9.17428 25.2463 7.76179 26.0618C5.99231 27.0834 5.38607 29.346 6.40768 31.1155C7.4293 32.885 9.6919 33.4912 11.4614 32.4696C12.8736 31.6542 13.5449 30.0483 13.239 28.5336L15.4639 27.2491C15.5581 27.3196 15.6572 27.385 15.7606 27.4447L20.4374 30.1449C20.5408 30.2046 20.6469 30.2576 20.7551 30.304V32.8725C19.29 33.3647 18.2345 34.7492 18.2345 36.3802C18.2345 38.4234 19.8909 40.0797 21.9341 40.0797C23.9773 40.0797 25.6337 38.4234 25.6337 36.3802C25.6337 34.7494 24.5786 33.3652 23.1138 32.8727V30.3039C23.2219 30.2575 23.3279 30.2045 23.4312 30.1449L28.108 27.4447C28.2115 27.3849 28.3106 27.3195 28.4049 27.249L30.6294 28.5333C30.3233 30.0482 30.9946 31.6543 32.407 32.4698C34.1765 33.4914 36.4391 32.8851 37.4607 31.1156C38.4823 29.3462 37.876 27.0835 36.1066 26.0619C34.6942 25.2465 32.9677 25.4682 31.8089 26.4906L29.5839 25.2061C29.5978 25.0894 29.6049 24.9712 29.6049 24.852V19.4517C29.6049 19.3322 29.5978 19.2137 29.5838 19.0968L31.8092 17.812C32.9681 18.8343 34.6946 19.0559 36.1068 18.2405C37.8763 17.2189 38.4826 14.9563 37.461 13.1868C36.4394 11.4173 34.1768 10.8111 32.4073 11.8327C30.9948 12.6481 30.3235 14.2544 30.6297 15.7693L28.4042 17.0542C28.3101 16.9838 28.2113 16.9186 28.108 16.8589L23.4312 14.1588C23.3279 14.0992 23.2219 14.0462 23.1138 13.9999V11.4297C24.5786 10.9373 25.6337 9.55295 25.6337 7.92223C25.6337 5.879 23.9773 4.22266 21.9341 4.22266Z" fill="#7842E8"/>
</g>
<defs>
<clipPath id="clip0_13_3568">
<rect width="44" height="44" fill="white"/>
</clipPath>
</defs>
</svg>
