<svg width="44" height="44" viewBox="0 0 44 44" fill="none" xmlns="http://www.w3.org/2000/svg">
<g clip-path="url(#clip0_13_3554)">
<path d="M21.6803 7.52148C17.0403 7.52148 13.2803 11.2815 13.2803 15.9215C13.2803 20.1615 16.7203 27.9215 21.6803 27.9215C26.5603 27.9215 30.0803 20.0815 30.0803 15.9215C30.0803 11.2815 26.3203 7.52148 21.6803 7.52148Z" fill="#7842E8"/>
<path d="M27.2003 29.5215H16.2403C12.4003 29.5215 9.28027 32.6415 9.28027 36.4815V40.4815C9.28027 40.8815 9.68027 41.2815 10.0803 41.2815H33.3603C33.7603 41.2815 34.1603 40.8815 34.1603 40.4815V36.4815C34.1603 32.6415 31.0403 29.5215 27.2003 29.5215Z" fill="#7842E8"/>
<path d="M21.6798 4.40078C26.5598 4.40078 30.6398 7.60078 31.8398 12.0808H33.5198C32.2398 6.72078 27.4398 2.80078 21.6798 2.80078C15.9198 2.80078 11.1198 6.72078 9.83984 12.0808H11.5198C12.7998 7.60078 16.8798 4.40078 21.6798 4.40078Z" fill="#7842E8"/>
<path d="M33.84 13.7617H33.76H31.84C31.44 13.7617 31.04 14.1617 31.04 14.5617V20.8017C31.04 21.2017 31.44 21.6017 31.84 21.6017H33.76C35.28 21.6017 36.56 20.3217 36.56 18.8017V16.5617C36.56 15.0417 35.36 13.7617 33.84 13.7617Z" fill="#7842E8"/>
<path d="M11.6004 21.6017C12.0804 21.6017 12.4004 21.2017 12.4004 20.8017V14.5617C12.4004 14.0817 12.0804 13.7617 11.6004 13.7617H9.68043C8.88043 13.7617 7.44043 14.1617 7.44043 16.5617V18.8017C7.44043 21.2817 8.80043 21.6017 9.68043 21.6017H11.6004Z" fill="#7842E8"/>
</g>
<defs>
<clipPath id="clip0_13_3554">
<rect width="44" height="44" fill="white"/>
</clipPath>
</defs>
</svg>
