<svg width="538" height="669" viewBox="0 0 538 669" fill="none" xmlns="http://www.w3.org/2000/svg">
<path d="M245.473 6.19822L244.226 8.35944L245.473 6.19822ZM522.52 166.086L523.767 163.925L522.52 166.086ZM522.588 529.083L521.334 526.925L522.588 529.083ZM292.68 655C292.68 662.35 298.638 668.308 305.988 668.308C313.338 668.308 319.296 662.35 319.296 655C319.296 647.65 313.338 641.692 305.988 641.692C298.638 641.692 292.68 647.65 292.68 655ZM0.19168 125.677C0.19168 133.027 6.15002 138.985 13.5 138.985C20.85 138.985 26.8083 133.027 26.8083 125.677C26.8083 118.327 20.85 112.369 13.5 112.369C6.15002 112.369 0.19168 118.327 0.19168 125.677ZM220.527 6.19822L221.775 8.35944L220.527 6.19822ZM244.226 8.35944L521.272 168.248L523.767 163.925L246.72 4.037L244.226 8.35944ZM532.505 187.699V507.51H537.495V187.699H532.505ZM521.334 526.925L304.734 652.843L307.242 657.157L523.842 531.24L521.334 526.925ZM14.7473 127.838L221.775 8.35944L219.28 4.037L12.2527 123.516L14.7473 127.838ZM532.505 507.51C532.505 515.509 528.25 522.905 521.334 526.925L523.842 531.24C532.295 526.326 537.495 517.287 537.495 507.51H532.505ZM521.272 168.248C528.223 172.259 532.505 179.674 532.505 187.699H537.495C537.495 177.89 532.262 168.828 523.767 163.925L521.272 168.248ZM246.72 4.037C238.23 -0.862969 227.77 -0.862972 219.28 4.037L221.775 8.35944C228.721 4.35037 237.279 4.35038 244.226 8.35944L246.72 4.037Z" fill="#7842E8" fill-opacity="0.6"/>
</svg>
