<svg width="36" height="41" viewBox="0 0 36 41" fill="none" xmlns="http://www.w3.org/2000/svg">
<path d="M0.57227 9.74253C0.57227 14.7711 1.80427 31.1894 17.0911 40.157C17.3673 40.3175 17.681 40.402 18.0005 40.402C18.3199 40.402 18.6336 40.3175 18.9098 40.157C34.1967 31.1852 35.4286 14.7837 35.4286 9.74253C35.4296 9.32949 35.2879 8.92879 35.0275 8.60813C34.7672 8.28746 34.4041 8.06649 33.9997 7.98253C27.01 6.53263 21.3696 2.68996 19.09 0.963482C18.7769 0.724909 18.3941 0.595703 18.0005 0.595703C17.6068 0.595703 17.2241 0.724909 16.9109 0.963482C14.6313 2.68996 8.99094 6.53263 2.00122 7.98253C1.5968 8.06649 1.23375 8.28746 0.973405 8.60813C0.713057 8.92879 0.571367 9.32949 0.57227 9.74253ZM10.3864 21.2077L11.6435 19.9505C11.8112 19.7857 12.0369 19.6934 12.2721 19.6934C12.5072 19.6934 12.7329 19.7857 12.9007 19.9505L14.9791 21.9662C15.1474 22.13 15.3729 22.2216 15.6077 22.2216C15.8425 22.2216 16.068 22.13 16.2363 21.9662L24.7848 13.4176C24.9531 13.2538 25.1786 13.1621 25.4134 13.1621C25.6482 13.1621 25.8738 13.2538 26.042 13.4176L27.2991 14.6747C27.463 14.8429 27.5546 15.0685 27.5546 15.3033C27.5546 15.5381 27.463 15.7636 27.2991 15.9319L16.253 27.0702C16.0848 27.234 15.8593 27.3256 15.6245 27.3256C15.3896 27.3256 15.1641 27.234 14.9959 27.0702L10.3864 22.4606C10.2228 22.2931 10.1312 22.0683 10.1312 21.8342C10.1312 21.6 10.2228 21.3752 10.3864 21.2077Z" fill="#7842E8"/>
</svg>
